<svg xmlns="http://www.w3.org/2000/svg" xmlns:xlink="http://www.w3.org/1999/xlink" viewBox="0 0 87.52 82.2"><defs><style>.cls-1,.cls-2{fill:none;}.cls-1{clip-rule:evenodd;}.cls-3{clip-path:url(#clip-path);}.cls-4{fill:url(#linear-gradient);}.cls-5{clip-path:url(#clip-path-2);}.cls-6{fill:url(#linear-gradient-2);}</style><clipPath id="clip-path"><path class="cls-1" d="M25.66,26.88A4.15,4.15,0,1,1,21.51,31a4.15,4.15,0,0,1,4.15-4.15M26,5.18a4,4,0,1,0-2.91,6.91,5.54,5.54,0,0,1,4,1.67h0a5.56,5.56,0,0,1,1.56,5.13A6.82,6.82,0,1,0,34,13.52,5.55,5.55,0,0,1,28.86,12h0a5.5,5.5,0,0,1-1.67-4A4,4,0,0,0,26,5.18ZM14.68,12.3a7.14,7.14,0,1,1-7.14,7.14A7.14,7.14,0,0,1,14.68,12.3ZM35.89,0a5.32,5.32,0,1,1-5.32,5.31A5.31,5.31,0,0,1,35.89,0ZM25.66,55.32a4.15,4.15,0,1,0-4.15-4.15A4.15,4.15,0,0,0,25.66,55.32ZM26,77a4,4,0,1,1-2.91-6.91,5.54,5.54,0,0,0,4-1.67h0a5.56,5.56,0,0,0,1.56-5.13A6.82,6.82,0,1,1,34,68.68a5.55,5.55,0,0,0-5.13,1.56h0a5.5,5.5,0,0,0-1.67,4A4,4,0,0,1,26,77ZM14.68,69.9a7.14,7.14,0,1,0-7.14-7.14A7.13,7.13,0,0,0,14.68,69.9ZM35.89,82.2a5.32,5.32,0,1,0-5.32-5.31A5.31,5.31,0,0,0,35.89,82.2ZM36,35A6.07,6.07,0,1,1,31.8,45.45a8.24,8.24,0,0,0-6-2.43h0a8.34,8.34,0,0,0-7.1,3.78,10.22,10.22,0,1,1,0-11.4,8.34,8.34,0,0,0,7.1,3.78h0a8.24,8.24,0,0,0,6-2.43A6,6,0,0,1,36,35Z"/></clipPath><linearGradient id="linear-gradient" x1="87.52" y1="41.1" x2="-6.36" y2="41.1" gradientUnits="userSpaceOnUse"><stop offset="0" stop-color="#6200ea"/><stop offset="0.49" stop-color="#2979ff"/><stop offset="1" stop-color="#18ffff"/></linearGradient><clipPath id="clip-path-2"><path class="cls-2" d="M57.9,27.7a5.06,5.06,0,1,1-1.48,3.58A5,5,0,0,1,57.9,27.7m3.58.54a3,3,0,1,0,2.15.89A3,3,0,0,0,61.48,28.24Zm.39-21.46a3,3,0,0,0-.63.93A2.87,2.87,0,0,0,61,8.82a6.53,6.53,0,0,1-.51,2.47,6.31,6.31,0,0,1-1.42,2.09h0a6.39,6.39,0,0,1-5.9,1.8,5.77,5.77,0,0,0-2.74.14,5.64,5.64,0,1,0,7.18,4.31,6.48,6.48,0,0,1,1.8-5.91h0A6.4,6.4,0,0,1,64,11.8a3,3,0,0,0,1.1-.23,2.94,2.94,0,1,0-3.22-4.79ZM60.44,5.35a5,5,0,1,1,7,7,5,5,0,0,1-1.58,1.06,4.76,4.76,0,0,1-1.86.38,4.39,4.39,0,0,0-3.16,1.34h0A4.44,4.44,0,0,0,59.69,17a4.56,4.56,0,0,0-.1,2.21,7.66,7.66,0,1,1-12.93-3.94,7.66,7.66,0,0,1,6.89-2.1A4.36,4.36,0,0,0,57.64,12h0a4.41,4.41,0,0,0,1-1.44A4.55,4.55,0,0,0,59,8.79a5,5,0,0,1,.39-1.86A4.88,4.88,0,0,1,60.44,5.35Zm6.11,9A8,8,0,1,1,64.22,20,8,8,0,0,1,66.55,14.33ZM72.19,14a5.94,5.94,0,1,0,4.21,1.74A6,6,0,0,0,72.19,14ZM47.13,1.81a6.18,6.18,0,1,1-1.82,4.38A6.17,6.17,0,0,1,47.13,1.81ZM51.51,2a4.16,4.16,0,0,0-2.95,7.12,4.17,4.17,0,0,0,7.12-2.95A4.17,4.17,0,0,0,51.51,2Zm7.82,51.05a3,3,0,1,0-.89-2.14A3,3,0,0,0,59.33,53.07ZM61.48,56a5.05,5.05,0,1,1,3.58-1.48A5,5,0,0,1,61.48,56ZM64,78.3a4.94,4.94,0,0,1-3.51-1.45,4.88,4.88,0,0,1-1.06-1.58A5,5,0,0,1,59,73.41a4.55,4.55,0,0,0-.34-1.72,4.41,4.41,0,0,0-1-1.44h0A4.36,4.36,0,0,0,53.55,69a7.66,7.66,0,0,1-6.89-2.1,7.66,7.66,0,0,1,5.42-13.07A7.65,7.65,0,0,1,59.59,63a4.56,4.56,0,0,0,.1,2.21A4.44,4.44,0,0,0,60.84,67h0A4.39,4.39,0,0,0,64,68.39a4.6,4.6,0,0,1,1.86.39,4.85,4.85,0,0,1,1.58,1A5,5,0,0,1,64,78.3Zm-2.08-2.88a2.94,2.94,0,1,0,3.22-4.79A3,3,0,0,0,64,70.4a6.4,6.4,0,0,1-4.57-1.92h0a6.48,6.48,0,0,1-1.8-5.91,5.63,5.63,0,1,0-7.18,4.31,5.77,5.77,0,0,0,2.74.14,6.39,6.39,0,0,1,5.9,1.8h0a6.31,6.31,0,0,1,1.42,2.09A6.53,6.53,0,0,1,61,73.38a2.87,2.87,0,0,0,.23,1.11A3,3,0,0,0,61.87,75.42Zm6.11-9a6,6,0,1,0-1.74-4.21A6,6,0,0,0,68,66.44Zm4.21,3.76a8,8,0,1,1,5.64-2.33A8,8,0,0,1,72.19,70.2ZM48.56,79A4.15,4.15,0,1,0,47.33,76,4.16,4.16,0,0,0,48.56,79Zm2.95,3.24a6.18,6.18,0,1,1,4.38-1.81A6.17,6.17,0,0,1,51.51,82.2Zm-5.06-46a6.91,6.91,0,0,1,4.91-2,6.86,6.86,0,0,1,4.83,2,7,7,0,0,0,5.12,2.08h0A7.1,7.1,0,0,0,67.42,35a11,11,0,1,1,0,12.24A7.1,7.1,0,0,0,61.33,44h0a7,7,0,0,0-5.12,2.08,6.93,6.93,0,0,1-9.74-9.87Zm4.91,0a4.91,4.91,0,1,0,0,9.82,4.77,4.77,0,0,0,1.85-.36,4.91,4.91,0,0,0,1.58-1A9,9,0,0,1,61.31,42h0A9.34,9.34,0,0,1,65.74,43a9.23,9.23,0,0,1,3.35,3.06,9,9,0,1,0,3.24-12.92,9,9,0,0,0-3.24,2.92,9.17,9.17,0,0,1-7.76,4.14h0a9,9,0,0,1-6.52-2.66,4.91,4.91,0,0,0-1.58-1A4.77,4.77,0,0,0,51.36,36.19Z"/></clipPath><linearGradient id="linear-gradient-2" x1="87.52" y1="41.1" x2="-6.36" y2="41.1" xlink:href="#linear-gradient"/></defs><g id="Livello_2" data-name="Livello 2"><g id="Layer_1" data-name="Layer 1"><g class="cls-3"><rect class="cls-4" width="42.78" height="82.2"/></g><g class="cls-5"><rect class="cls-6" x="44.42" width="43.1" height="82.2"/></g></g></g></svg>